<?xml version="1.0" encoding="UTF-8"?>
<svg xmlns="http://www.w3.org/2000/svg" version="1.1" viewBox="0 0 171.999 19.477">
  <defs>
    <style>
      .cls-1 {
        fill: #a3a3a2;
      }

      .cls-2 {
        fill: #005b9f;
      }
    </style>
  </defs>
  <!-- Generator: Adobe Illustrator 28.7.10, SVG Export Plug-In . SVG Version: 1.2.0 Build 236)  -->
  <g>
    <g id="Layer_1">
      <g>
        <g>
          <path class="cls-2" d="M56.868,15.411c-.873,3.318.306,3.928,4.233,3.928h3.518l.876-3.316h-1.373c-.997,0-1.396-.304-1.168-1.158l1.894-7.173h2.629l.873-3.308h-2.624l1.161-4.384h-5.954l-1.164,4.384h-2.642l-.874,3.308h2.633l-2.019,7.719Z"/>
          <path class="cls-2" d="M81.339,19.339l2.882-10.916c.847-3.205-1.998-4.039-3.842-4.039h-10.477l-.875,3.308h7.952c1.097,0,1.373.543,1.042,1.785l-1.732,6.546-1.985.004c-1.1,0-1.373-.52-1.047-1.766l1.357-5.143-6.657,2.633-.942,3.562c-.85,3.211,1.069,4.026,3.785,4.026h10.538Z"/>
          <path class="cls-2" d="M51.139,4.384h-10.548l-.874,3.308h5.585l-6.236,2.466-2.427,9.181h5.983l3.072-11.647h1.928c1.098,0,1.373.543,1.041,1.785l-2.602,9.862h5.967l2.881-10.916c.848-3.205-1.057-4.039-3.771-4.039Z"/>
          <path class="cls-2" d="M22.064,7.692h5.641l-6.293,2.466-1.346,5.102c-.85,3.211,1.216,4.079,3.933,4.079h10.657l.868-3.31h-8.141c-.955-.001-1.317-.554-.988-1.796l.192-.691h9.378s1.359-5.119,1.359-5.119c.846-3.205-1.062-4.039-3.77-4.039h-7.774c-1.43,0-3.039.573-3.716,3.308ZM30.038,7.692c1.097,0,1.373.543,1.043,1.785l-.168.681h-3.443l.648-2.466h1.919Z"/>
          <path class="cls-2" d="M2.34,0l-.882,3.33h8.725l-6.617,2.496L0,19.339h6.411l1.727-6.544h.145l5.081.032c3.027,0,5.667-.952,6.653-4.532l1.012-3.803c.946-3.579-1.623-4.492-4.207-4.492H2.34ZM13.737,7.162c-.383,1.389-1.002,1.956-2.229,1.956h-2.4l1.533-5.789h2.424c1.222,0,1.532.562,1.162,1.948l-.49,1.885Z"/>
        </g>
        <g>
          <path class="cls-1" d="M88.862,8.561c1.179-3.962,2.67-4.317,6.229-4.317,2.894,0,4.94.135,3.579,4.179h-1.518c.699-2.594.495-2.696-2.558-2.696-2.962,0-3.539.559-4.107,2.479-.837,2.831.447,2.594,2.921,2.674,3.116.196,4.731.235,3.537,4.257-1.249,4.196-3.073,4.338-6.448,4.338-3.411,0-5.041-.457-3.479-4.755h1.516c-1.008,3.269-.438,3.269,2.405,3.269s3.641,0,4.504-2.914c.841-2.831-.417-2.492-2.797-2.712-2.573-.238-4.946.119-3.784-3.803Z"/>
          <path class="cls-1" d="M100.896,10.9h6.886l-.366,1.385h-6.886l-1.47,5.571h7.053l-.392,1.483h-8.607l3.949-14.956h8.605l-.392,1.485h-7.056l-1.325,5.032Z"/>
          <path class="cls-1" d="M133.685,4.383l-2.851,10.813c-1.083,4.143-3.264,4.281-6.425,4.281-2.927,0-5.282-.081-4.176-4.281l2.851-10.813h1.519l-2.854,10.813c-.634,2.418-.218,2.795,3.052,2.795,2.694,0,3.873-.38,4.518-2.795l2.851-10.813h1.515Z"/>
          <path class="cls-1" d="M145.07,19.339h-1.517l3.946-14.956h1.515l-3.944,14.956Z"/>
          <path class="cls-1" d="M152.3,19.339h-1.521l3.56-13.491h-4.337l.387-1.465h10.197l-.387,1.465h-4.339l-3.559,13.491Z"/>
          <path class="cls-1" d="M164.848,13.019l-1.662,6.32h-1.523l1.669-6.32-2.808-8.637h1.768l2.272,6.931,5.636-6.931h1.8l-7.151,8.637Z"/>
          <path class="cls-1" d="M117.019,15.495c-.51,2.119-1.325,2.495-3.756,2.495h-1.608c-2.534,0-2.247-1.665-1.427-5.048l1.089-4.085c.66-2.712,1.867-3.129,5.01-3.129h.855c1.909,0,2.151.741,1.701,2.696h1.519c.652-2.69-.222-3.638-1.519-3.993-.656-.18-2.376-.186-2.376-.186-3.25,0-5.701.474-6.717,4.676l-1.543,5.881c-.717,2.97.316,4.675,2.762,4.675h1.949c2.676,0,4.706-.38,5.529-3.784l.304-1.109h-1.517l-.256.911Z"/>
          <path class="cls-1" d="M141.652,4.364h-.012s-6.177-.001-6.177-.001l-3.951,14.977h1.505l1.602-6.064h4.874c1.838,0,2.008.915,1.507,2.793l-.867,3.271h1.515l1.072-4.061c.426-1.604.025-2.558-1.441-2.673l.007-.041c2.161-.295,2.801-1.784,3.342-3.803h.002s.027-.101.027-.101c.002-.007.004-.012.005-.019,0-.001,0-.002,0-.004l.035-.132c.754-3.248-.245-4.128-3.046-4.141ZM139.688,11.792h-4.675l1.571-5.944h4.666c1.291,0,1.898.211,2.114.703.174.418.062,1.038-.169,1.911-.649,2.455-1.146,3.248-3.507,3.329Z"/>
        </g>
      </g>
    </g>
  </g>
</svg>