<svg width="255" height="36" viewBox="0 0 255 36" fill="none" xmlns="http://www.w3.org/2000/svg">
<path d="M4.9144e-05 35.25V0.25H7.70005V28.25H25.15V35.25H4.9144e-05ZM26.4571 35.25L41.4571 -2.38419e-07H48.5571L63.5571 35.25H55.5071L52.3071 27.4H37.5071L34.3071 35.25H26.4571ZM40.2571 20.6H49.5571L44.9071 9.25L40.2571 20.6ZM69.2915 35.25V21.45L55.8415 0.25H64.8415L73.1915 14.3L81.6915 0.25H90.4415L76.9915 21.3V35.25H69.2915ZM91.7325 35.25V0.25H118.132V7.1H99.3825V14.2H115.882V21.05H99.3825V28.4H118.382V35.25H91.7325ZM121.729 35.25V0.25H137.729C142.179 0.25 145.629 1.5 147.929 3.8C149.879 5.75 150.929 8.5 150.929 11.8V11.9C150.929 17.55 147.879 21.1 143.429 22.75L151.979 35.25H142.979L135.479 24.05H129.429V35.25H121.729ZM129.429 17.25H137.229C140.979 17.25 143.129 15.25 143.129 12.3V12.2C143.129 8.9 140.829 7.2 137.079 7.2H129.429V17.25ZM153.361 35.25L168.361 -2.38419e-07H175.461L190.461 35.25H182.411L179.211 27.4H164.411L161.211 35.25H153.361ZM167.161 20.6H176.461L171.811 9.25L167.161 20.6ZM192.363 35.25V0.25H208.363C212.813 0.25 216.263 1.5 218.563 3.8C220.513 5.75 221.563 8.5 221.563 11.8V11.9C221.563 17.55 218.513 21.1 214.063 22.75L222.613 35.25H213.613L206.113 24.05H200.063V35.25H192.363ZM200.063 17.25H207.863C211.613 17.25 213.763 15.25 213.763 12.3V12.2C213.763 8.9 211.463 7.2 207.713 7.2H200.063V17.25ZM233.577 35.25V21.45L220.127 0.25H229.127L237.477 14.3L245.977 0.25H254.727L241.277 21.3V35.25H233.577Z" fill="black"/>
</svg>
